<?xml version="1.0" encoding="UTF-8"?>
<!DOCTYPE svg PUBLIC "-//W3C//DTD SVG 1.1//EN" "http://www.w3.org/Graphics/SVG/1.1/DTD/svg11.dtd">
<!-- Creator: CorelDRAW 2019 (64-Bit 评估版) -->
<svg xmlns="http://www.w3.org/2000/svg" xml:space="preserve" width="210mm" height="297mm" version="1.1" style="shape-rendering:geometricPrecision; text-rendering:geometricPrecision; image-rendering:optimizeQuality; fill-rule:evenodd; clip-rule:evenodd"
viewBox="0 0 21000 29700"
 xmlns:xlink="http://www.w3.org/1999/xlink">
 <defs>
  <style type="text/css">
   <![CDATA[
    .fil0 {fill:#220B16}
   ]]>
  </style>
 </defs>
 <g id="图层_x0020_1">
  <metadata id="CorelCorpID_0Corel-Layer"/>
  <g>
   <path class="fil0" d="M4813.27 23282.41c5.08,3.8 1802.15,1358.74 3861.83,262.61 1432.97,-762.47 2348.31,-367.91 3329.63,55.19 1029.52,444.03 2137.07,921.69 4085.11,-78.02 419.93,-305.75 813.22,-645.12 1176.06,-1015.57 -2312.78,922.32 -3689.29,396.46 -4973.18,-93.89 -1134.83,-433.88 -2193.53,-839.22 -3812.36,-74.85 -2052.7,968.63 -3913.21,340.64 -4753.7,-58.99 333.66,363.47 695.86,700.94 1083.44,1007.96l3.17 -4.44zm14549.74 -4083.22c-615.94,-1068.22 -1164,-2465.02 -1831.96,-3719.73 -570.26,-1070.13 -1109.45,-2208.76 -2286.77,-904.57 -656.54,726.32 -1960.1,3895.45 -2857.68,2466.3 -540.46,-861.43 -2180.85,-3349.29 -2613.46,-3818.06 -551.87,-598.82 -2203.68,2015.28 -2677.53,2825.32l324.78 -170c418.03,-98.32 921.05,-61.53 1431.69,334.93 211.24,163.66 351.43,349.52 433.89,542.99l0 0c91.98,216.94 111.01,443.4 76.12,660.34 -15.23,97.06 -41.87,191.57 -77.39,282.28l0 0c-36.16,93.88 -83.1,183.96 -137.02,267.69 -52.65,82.47 -113.54,159.85 -180.15,229.63 -67.24,70.41 -140.19,133.85 -216.94,187.76 -164.93,116.09 -349.52,192.21 -537.28,212.51 -173.81,19.03 -350.79,-10.15 -516.98,-100.86 -137.02,-73.59 -248.03,-156.68 -336.2,-245.49 -83.1,-83.73 -145.26,-171.9 -190.94,-261.98 -156.04,105.93 -380.6,286.72 -459.89,492.24 -83.73,215.04 -1.9,464.34 507.47,693.97 303.84,137.01 595.64,171.9 889.97,152.87 296.23,-19.03 596.91,-92.61 914.71,-170.64 456.09,-111.64 945.16,-231.53 1516.06,-227.09 570.9,4.44 1221.1,133.85 1995.62,521.43 2000.06,999.71 2620.44,848.74 3478.06,640.04l0.63 0 0 0 1.27 -0.64 0 0 3.8 -0.63 0 0c244.22,-59.63 507.47,-123.69 820.83,-169.37 912.18,-132.57 1698.12,-10.78 2175.14,105.3 74.85,-155.41 145.26,-313.36 211.87,-473.21l6.34 -13.96 5.71 -15.22 6.34 -14.59 6.34 -15.22 5.71 -15.23 6.35 -14.59 5.71 -15.22 6.34 -15.23 3.17 -8.24 2.54 -6.98 6.34 -15.22 5.71 -14.59 5.71 -15.23 6.34 -15.22 5.71 -15.23 5.71 -15.22 5.71 -15.22 5.08 -13.32 1.26 -1.91 5.71 -15.22 5.71 -15.23 5.71 -15.22 5.71 -15.22 5.71 -15.23 5.71 -15.22 1.9 -6.35zm-12711.43 -2964.88c516.98,-945.15 2321.03,-4432.09 3476.79,-3175.48 379.96,412.32 1514.79,2166.89 2203.67,3252.24 480.2,756.76 588.03,1043.48 1198.9,199.18 551.23,-763.11 976.24,-1719.05 1656.24,-2383.83 1184.31,-1158.3 2082.53,-168.73 2565.89,994.64 392.02,943.89 1394.27,2783.46 1798.34,3515.48 689.52,-2277.26 295.6,-3966.5 295.6,-3966.5 -307.65,-2205.58 -1386.66,-4164.4 -2956,-5595.46l48.21 -301.95c1996.25,1757.11 3256.04,4331.88 3256.04,7199.07 0,1038.41 -165.56,2038.75 -471.31,2975.66l0.63 0.64 -1.27 1.27c-1252.81,3838.99 -4861.54,6613.57 -9118.56,6613.57 -5296.06,0 -9591.14,-4295.08 -9591.14,-9591.14 0,-2263.94 785.31,-4345.19 2098.38,-5985.58 46.3,81.83 93.88,160.48 142.72,234.7 -1242.02,1585.2 -1982.93,3581.45 -1982.93,5750.88 0,2071.1 675.57,3984.26 1817.37,5532.67 57.73,42.5 2427.6,1775.5 5237.07,506.83 1759.01,-830.34 2886.86,-399 4095.27,63.43 1345.42,514.45 2797.41,1069.49 5430.54,-223.92 202.98,-249.92 393.28,-510.64 570.26,-780.86 -50.74,63.43 -102.13,126.23 -155.41,189.66 -261.98,-57.72 -569,-93.24 -912.17,-75.48 -431.35,22.2 -909.64,143.99 -1391.1,267.05l0 0 0 0c-407.88,104.03 -818.29,209.33 -1217.29,258.18 -401.53,49.48 -790.38,42.5 -1153.22,-78.03 -223.28,-74.85 -472.58,-185.86 -750.42,-309.55l0 0 -0.63 -0.64 -0.64 0c-548.69,-244.21 -1212.84,-539.81 -1952.48,-671.12 -737.09,-130.67 -1551.58,-97.69 -2406.66,312.09 -476.39,228.36 -923.59,374.26 -1339.08,454.18 -458.63,87.54 -879.83,95.15 -1260.43,43.14 -437.69,-60.26 -822.1,-197.91 -1148.78,-381.87 -375.52,-212.5 -674.93,-485.27 -891.87,-769.45 -287.99,-378.06 -413.59,-890.6 -459.9,-1372.06 -43.13,-443.4 -19.03,-860.8 6.98,-1120.87 -99.59,24.74 -202.35,36.15 -305.75,36.15 -109.1,0 -218.84,-13.95 -323.51,-39.96 -107.2,-27.28 -211.23,-67.24 -307.02,-119.89 -93.88,-51.38 -180.15,-114.18 -255.63,-188.4 -93.88,-93.24 -171.27,-202.98 -223.29,-329.22 -49.48,-117.35 -76.75,-248.66 -77.39,-392.65 0,-34.25 0.64,-66.6 1.91,-97.69 1.26,-33.62 3.17,-64.06 5.07,-90.71 18.4,-205.52 66.61,-383.77 140.19,-537.28 78.66,-163.02 184.59,-296.23 312.09,-402.17 120.52,-99.59 259.44,-173.17 411.05,-222.65 156.05,-51.38 326.05,-76.12 503.66,-76.75 31.72,0 62.8,0 91.98,1.27 31.72,1.26 61.53,3.17 88.81,5.7 303.21,26.65 570.9,170.64 788.48,343.18 194.1,154.14 348.25,330.49 452.28,465.6 37.42,-45.67 81.19,-90.71 130.03,-133.21 59.63,-51.38 128.14,-98.95 202.99,-139.55 100.86,-55.19 215.04,-98.96 340.64,-124.33 113.55,-22.84 236.61,-31.08 366.65,-19.67 226.45,19.67 405.34,119.26 542.35,239.78 118.62,104.67 205.53,225.19 264.52,324.78l112.28 -83.1zm10000.28 -8871.8l-610.23 128.13c0,0 -744.71,-312.09 -1533.18,250.57 -788.48,561.38 -1400.61,945.79 -1400.61,945.79 0,0 2091.4,-3119.66 -6753.13,-5604.98 0,0 3803.47,3287.12 4172.02,5450.2 367.91,2164.99 -1281.99,2935.7 -5845.4,-873.48 0,0 1903.64,1927.11 892.51,1827.52 -1012.4,-100.22 -3628.39,-828.44 -3628.39,-828.44 0,0 5217.4,2197.34 7877.8,2461.85 2660.4,265.15 4991.58,314.63 6383.31,-3111.41l445.3 -645.75zm-2113.6 17074.39c-1111.99,170 -1914.42,-175.71 -2676.26,-504.3 -899.48,-387.58 -1738.71,-749.78 -3016.89,-69.14 -917.89,488.44 -1787.56,533.47 -2498.65,414.85 1276.92,655.91 2723.83,1026.36 4258.29,1026.36 1405.05,0 2738.42,-310.83 3933.51,-867.77zm3943.03 -3458.4c135.74,-212.5 262.61,-431.98 381.23,-656.53 -450.38,-102.77 -1158.29,-199.82 -1978.49,-79.93 -303.85,44.4 -558.21,105.93 -794.19,163.66l0 0 -1.9 0 -5.07 1.27 -0.64 0c-921.05,224.55 -1591.54,385.04 -3694.36,-666.69 -1442.48,-721.24 -2429.51,-479.55 -3290.3,-268.32l0 0c-343.17,83.73 -667.32,163.02 -995.27,182.05 -330.49,19.03 -663.51,-22.83 -1019.38,-183.32 -808.14,-364.74 -885.53,-774.52 -716.79,-1119.6 156.68,-321.61 534.11,-581.69 713.62,-691.43 -1.9,-25.37 -2.54,-50.74 -1.9,-75.48 0.63,-34.26 3.17,-68.51 8.25,-101.5 6.97,-53.91 19.66,-105.93 36.15,-156.04 17.13,-51.38 38.7,-101.5 64.07,-148.44 57.09,-105.3 133.85,-197.91 223.29,-271.49 88.8,-73.58 190.3,-127.5 298.13,-156.05 633.07,-168.73 881.73,454.19 884.27,460.53l3.17 7.61c90.71,203.62 -256.27,327.32 -287.99,151.61l-15.22 -38.06c-1.27,-2.54 -144.63,-363.48 -501.76,-268.33 -63.44,17.13 -124.33,50.12 -178.25,95.79 -55.19,46.3 -103.4,105.3 -139.55,171.9 -17.13,31.09 -31.09,63.44 -41.87,95.79 -10.78,32.35 -18.4,65.97 -23.47,99.59 -5.08,34.89 -6.34,70.41 -4.44,106.57 2.54,34.88 7.61,69.77 17.13,104.66 22.83,85.64 69.14,172.54 143.99,255.64 69.14,76.12 163.66,149.7 286.08,216.31 107.84,58.36 223.92,76.12 340.64,61.53 128.14,-15.86 256.27,-71.05 372.99,-152.88 60.26,-42.5 117.35,-91.98 169.37,-147.16 52.65,-54.56 100.22,-115.45 142.09,-180.15 42.5,-65.98 78.66,-136.39 107.2,-208.7 27.91,-70.41 48.21,-143.36 59.63,-216.94 26.01,-159.86 10.78,-327.32 -58.36,-487.81 -62.16,-143.99 -168.73,-283.54 -329.22,-408.51 -1035.23,-803.07 -2041.92,212.5 -2052.07,222.65l0 0 0 0 -134.48 134.48 -45.04 45.04 -21.57 -59.63 -63.43 -170 0 -0.63 -3.17 -8.25 0.63 0 -0.63 0c-1.9,-5.71 -188.4,-517.62 -629.9,-556.95 -97.68,-8.24 -189.66,-2.53 -274.03,14.59 -93.25,18.4 -176.98,50.12 -249.93,90.08 -82.46,45.04 -151.6,99.59 -206.15,156.68 -58.36,61.53 -98.33,125.6 -117.99,182.69l-84.37 247.39 -28.54 83.1 -45.04 -74.85 -134.48 -223.92 -6.34 -10.15 0 0c-56.46,-91.35 -516.99,-803.07 -1134.19,-856.99 -29.18,-3.17 -55.82,-4.44 -79.3,-5.71 -26,-1.27 -50.74,-1.9 -73.58,-1.9 -140.19,0.63 -274.03,19.66 -395.82,58.99 -116.09,37.43 -221.39,92.61 -311.46,167.47 -93.88,77.38 -171.91,176.97 -229.63,300.04 -55.19,116.71 -91.98,255 -105.93,416.75 -2.54,29.18 -4.44,56.46 -5.71,81.2 -0.64,27.28 -1.27,53.92 -1.27,79.29 0,98.32 19.03,187.13 52.01,267.06 35.53,85.63 88.18,160.48 152.24,223.28 53.92,53.92 116.72,99.59 185.23,136.38 71.04,38.7 147.8,67.88 228.36,88.18 80.56,20.29 163.02,31.08 244.85,31.08 81.2,0.63 161.12,-8.88 237.88,-28.55 95.15,-24.74 185.86,-65.33 264.52,-123.06 72.94,-53.92 136.38,-122.42 184.59,-206.79 53.28,-93.25 81.83,-181.42 90.07,-261.98 9.52,-88.17 -4.44,-168.1 -35.52,-236.61 -15.86,-35.52 -36.79,-69.14 -60.9,-99.59 -25.37,-31.08 -55.18,-59.63 -87.53,-84.37 -32.35,-24.73 -67.24,-45.67 -104.03,-62.16 -36.8,-16.49 -75.49,-28.55 -115.45,-36.16 -74.22,-14.59 -152.24,-12.05 -226.46,9.52l0 0c-89.44,26.64 -156.05,79.29 -220.75,142.72 -172.54,149.71 -367.91,-86.9 -227.73,-230.89l29.18 -28.55c97.69,-96.42 209.33,-159.85 325.42,-194.11 125.6,-38.06 256.27,-41.86 381.23,-17.76 64.07,12.69 126.87,32.35 186.5,59 60.26,27.27 117.35,60.89 169.36,100.85 53.29,39.97 101.5,87.54 144,140.19l0 0c40.6,51.38 75.48,107.84 103.39,168.74 52.02,116.71 76.76,248.02 64.71,389.48 -11.42,127.5 -53.29,263.25 -133.85,402.8 -41.23,72.31 -90.71,137.65 -145.89,194.74 -52.65,55.19 -111.01,102.76 -173.81,143.36 -22.2,164.29 -69.14,579.78 -44.41,1047.29 26.01,483.36 127.51,1023.18 412.32,1396.17 192.84,253.1 459.89,496.05 795.46,684.45 292.43,164.92 636.87,287.98 1030.16,341.9 350.15,47.58 739,40.6 1164.64,-41.86 387.57,-74.86 805.6,-211.87 1252.17,-425.64 1845.28,-884.9 3478.06,-158.59 4630.65,354.59l0.63 0.63 0.64 0.64c271.49,120.52 515.08,228.99 719.97,297.5 315.26,104.67 667.32,107.84 1037.13,60.26 371.09,-48.21 762.47,-148.43 1151.95,-248.02 245.49,-62.8 490.98,-124.97 736.47,-175.71 243.58,-50.75 483.99,-88.17 718.06,-100.23 438.33,-22.2 825.27,34.89 1143.08,118.62zm-9383.72 -1506.54l0 0 0 0zm-3631.57 -1729.83c-4.44,14.59 -162.39,554.41 -72.31,1116.43 116.08,723.77 648.92,1483.71 2478.35,1191.28l39.96 -6.98c214.4,-50.11 284.18,278.47 50.75,320.34l-39.97 6.34c-2099.64,336.2 -2717.49,-555.67 -2853.87,-1408.22 -105.3,-656.54 79.29,-1290.24 85,-1308l10.79 -38.69c43.76,-195.38 354.59,-122.43 313.99,88.17l-12.69 39.33 0 0z"/>
  </g>
 </g>
</svg>
