<svg id="Layer_1" data-name="Layer 1" xmlns="http://www.w3.org/2000/svg" viewBox="0 0 160 160"><defs><style>.cls-1{fill:#ccebf7;opacity:0.75;}.cls-2{fill:#f68c54;}.cls-3{fill:#fff;}.cls-4{fill:#e16c26;}.cls-5{fill:#33b0dc;}.cls-6{fill:#ddd;}</style></defs><title>Artboard 1</title><ellipse class="cls-1" cx="80" cy="80" rx="69.8" ry="70.03"/><g id="Browser"><g id="base"><rect class="cls-2" x="15.36" y="34.98" width="129.28" height="83.65" rx="3.17" ry="3.17"/><path class="cls-3" d="M50.85,52.72v-7.6a2.54,2.54,0,0,0-2.54-2.54H25.5A2.54,2.54,0,0,0,23,45.12v63.37A2.54,2.54,0,0,0,25.5,111h109a2.54,2.54,0,0,0,2.54-2.54V55.26a2.54,2.54,0,0,0-2.54-2.54Z"/></g><g id="btns"><path class="cls-4" d="M114.22,35H137a0,0,0,0,1,0,0V40a2.53,2.53,0,0,1-2.53,2.53H116.76A2.53,2.53,0,0,1,114.22,40V35A0,0,0,0,1,114.22,35Z"/></g><g id="content"><rect class="cls-5" x="96.48" y="70.47" width="38.02" height="12.67"/><rect class="cls-6" x="25.5" y="55.26" width="109" height="12.67"/><rect class="cls-6" x="25.5" y="70.62" width="32.95" height="12.52"/><rect class="cls-6" x="60.99" y="70.62" width="32.95" height="12.52"/><rect class="cls-6" x="96.48" y="85.68" width="38.02" height="22.81"/><rect class="cls-6" x="25.53" y="85.68" width="68.41" height="2.53"/><rect class="cls-6" x="25.53" y="90.75" width="68.41" height="2.53"/><rect class="cls-6" x="25.5" y="95.82" width="68.44" height="2.53"/><rect class="cls-5" x="25.5" y="100.89" width="20.67" height="7.6" rx="3.8" ry="3.8"/><rect class="cls-5" x="48.44" y="100.89" width="20.67" height="7.6" rx="3.8" ry="3.8"/></g></g></svg>