<svg id="Layer_1" data-name="Layer 1" xmlns="http://www.w3.org/2000/svg" viewBox="0 0 160 160"><defs><style>.cls-1,.cls-3{fill:#ccebf7;}.cls-1{opacity:0.75;}.cls-2{fill:none;stroke:#99a9b5;stroke-miterlimit:10;stroke-width:2.83px;}.cls-4{fill:#f68c54;}.cls-5{fill:#fff;}.cls-6{fill:#33b0dc;}.cls-7{fill:#17a6d9;}.cls-8{fill:#80cde9;}</style></defs><title>Artboard 2</title><ellipse class="cls-1" cx="80" cy="80" rx="69.8" ry="70.03"/><g id="Paths"><polyline class="cls-2" points="69 104.78 79 104.78 118.13 104.78 118.13 89.66 118.13 39.53"/><path class="cls-2" d="M58.35,114.28V75.91H69.87a3,3,0,0,0,3-3V48.53"/><line class="cls-2" x1="118.13" y1="101.78" x2="118.13" y2="117.47"/><path class="cls-2" d="M58.35,75.91H29.79a3,3,0,0,1-3-3V56.07"/></g><g id="Server"><rect class="cls-3" x="54.42" y="94.86" width="7" height="22.17"/><rect class="cls-4" x="41.73" y="110.72" width="33.24" height="8.31" rx="4.15" ry="4.15"/><circle class="cls-5" cx="46.54" cy="114.88" r="1.88"/><circle class="cls-5" cx="52.4" cy="114.88" r="1.88"/><rect class="cls-4" x="41.73" y="100.46" width="33.24" height="8.31" rx="4.15" ry="4.15"/><circle class="cls-5" cx="46.54" cy="104.61" r="1.88"/><circle class="cls-5" cx="52.4" cy="104.61" r="1.88"/><rect class="cls-4" x="41.73" y="90.2" width="33.24" height="8.31" rx="4.15" ry="4.15"/><circle class="cls-5" cx="46.54" cy="94.35" r="1.88"/><circle class="cls-5" cx="52.4" cy="94.35" r="1.88"/></g><g id="Server-2" data-name="Server"><rect class="cls-4" x="56.77" y="46.76" width="33.24" height="8.31" rx="4.15" ry="4.15"/><circle class="cls-5" cx="61.58" cy="50.92" r="1.88"/><circle class="cls-5" cx="67.44" cy="50.92" r="1.88"/><rect class="cls-4" x="56.77" y="36.5" width="33.24" height="8.31" rx="4.15" ry="4.15"/><circle class="cls-5" cx="61.58" cy="40.66" r="1.88"/><circle class="cls-5" cx="67.44" cy="40.66" r="1.88"/><rect class="cls-4" x="56.77" y="26.24" width="33.24" height="8.31" rx="4.15" ry="4.15"/><circle class="cls-5" cx="61.58" cy="30.4" r="1.88"/><circle class="cls-5" cx="67.44" cy="30.4" r="1.88"/></g><g id="Server-3" data-name="Server"><rect class="cls-3" x="115.25" y="64.7" width="7" height="22.17"/><rect class="cls-4" x="101.34" y="82.58" width="33.24" height="8.31" rx="4.15" ry="4.15"/><circle class="cls-5" cx="106.15" cy="86.73" r="1.88"/><circle class="cls-5" cx="112.01" cy="86.73" r="1.88"/><rect class="cls-4" x="101.34" y="72.32" width="33.24" height="8.31" rx="4.15" ry="4.15"/><circle class="cls-5" cx="106.15" cy="76.47" r="1.88"/><circle class="cls-5" cx="112.01" cy="76.47" r="1.88"/><rect class="cls-4" x="101.34" y="62.06" width="33.24" height="8.31" rx="4.15" ry="4.15"/><circle class="cls-5" cx="106.15" cy="66.21" r="1.88"/><circle class="cls-5" cx="112.01" cy="66.21" r="1.88"/></g><g id="database"><path class="cls-6" d="M130,120.11v3.26c0,2.13-5.2,3.87-11.62,3.87s-11.61-1.74-11.61-3.87v-3.26c0-2.14,5.2-3.88,11.61-3.88S130,118,130,120.11Zm0,6.5v2.57c0,2.13-5.2,3.87-11.62,3.87s-11.61-1.74-11.61-3.87v-2.57c2.49,1.75,7.06,2.57,11.61,2.57S127.5,128.36,130,126.61Zm0,5.81V135c0,2.13-5.2,3.87-11.62,3.87s-11.61-1.74-11.61-3.87v-2.57c2.49,1.75,7.06,2.57,11.61,2.57S127.5,134.17,130,132.42Zm0,5.8v2.57c0,2.14-5.2,3.88-11.62,3.88s-11.61-1.74-11.61-3.88v-2.57c2.49,1.76,7.06,2.57,11.61,2.57S127.5,140,130,138.22Z"/><ellipse class="cls-5" cx="118.38" cy="119.69" rx="11.61" ry="3.54"/></g><g id="Pilv"><path class="cls-7" d="M129,40.87H109.3a8.11,8.11,0,0,1-3.44-15.46c0-.26,0-.53,0-.78a9.29,9.29,0,0,1,17.88-3.52,4.51,4.51,0,0,1,3-1.12,4.65,4.65,0,0,1,4.64,4.64,4.57,4.57,0,0,1-.75,2.5A7,7,0,0,1,129,40.87Z"/><path class="cls-8" d="M129.75,27a6.84,6.84,0,0,0-3.54,1A5.59,5.59,0,0,0,115.51,27a8.33,8.33,0,1,0-6.18,13.91h20.42a6.92,6.92,0,0,0,0-13.84Z"/></g><g id="database-2" data-name="database"><path class="cls-6" d="M38.12,33.36v3.26c0,2.13-5.2,3.87-11.61,3.87s-11.62-1.74-11.62-3.87V33.36c0-2.14,5.21-3.88,11.62-3.88S38.12,31.22,38.12,33.36Zm0,6.5v2.57c0,2.13-5.2,3.87-11.61,3.87s-11.62-1.74-11.62-3.87V39.86c2.5,1.75,7.07,2.57,11.62,2.57S35.63,41.61,38.12,39.86Zm0,5.81v2.57c0,2.13-5.2,3.87-11.61,3.87s-11.62-1.74-11.62-3.87V45.67c2.5,1.75,7.07,2.57,11.62,2.57S35.63,47.42,38.12,45.67Zm0,5.8V54c0,2.14-5.2,3.88-11.61,3.88S14.89,56.18,14.89,54V51.47C17.39,53.23,22,54,26.51,54S35.63,53.23,38.12,51.47Z"/><ellipse class="cls-5" cx="26.5" cy="32.94" rx="11.61" ry="3.54"/></g></svg>