<svg id="Layer_1" data-name="Layer 1" xmlns="http://www.w3.org/2000/svg" viewBox="0 0 160 160"><defs><style>.cls-1{opacity:0.75;}.cls-2{fill:#ccebf7;}.cls-3{fill:#bcbec0;}.cls-4{fill:#fff;}.cls-5{fill:#f68c55;}.cls-6{fill:#18a6db;}.cls-7{fill:#eee;}.cls-8{opacity:0.5;}.cls-9{fill:#0a9bd4;}.cls-10{opacity:0.1;}.cls-11{fill:#231f20;}.cls-12{fill:#5b3415;}.cls-13{fill:#9a5e30;}.cls-14{fill:#bbb;}.cls-15{fill:#939598;}.cls-16{fill:#e6e7e8;}.cls-17{fill:#cbcbca;}.cls-18{fill:#a7a9ac;}.cls-19{fill:#d1d3d4;}.cls-20{fill:#f6c172;}.cls-21{fill:#e1ac5f;}.cls-22{fill:#f68c54;}.cls-23{fill:#a89080;}.cls-24{fill:#e17c44;}.cls-25{fill:#0c1f3b;}.cls-26{fill:#203b56;}.cls-27{fill:#0d141f;}.cls-28{fill:#875125;}.cls-29{fill:#ffde9c;}.cls-30{fill:#fbb26d;}.cls-31{fill:#baa495;}.cls-32{fill:#617687;}.cls-33{fill:#2f2f2f;}.cls-34{fill:#7a91a5;}.cls-35{fill:#899faf;}.cls-36{fill:#4a3e37;}.cls-37{fill:#5f534d;}.cls-38{fill:#382b25;}.cls-39{fill:#ca9548;}.cls-40{fill:#99a9b5;}.cls-41{fill:#66c4e6;}.cls-42{fill:#9ad6ed;}.cls-43{fill:#e6f5fb;}.cls-44{fill:#33b0dc;}.cls-45{fill:#fece8d;}</style></defs><title>Artboard 3</title><g class="cls-1"><ellipse class="cls-2" cx="80" cy="80" rx="69.8" ry="70.03"/></g><g id="tahvel"><path class="cls-3" d="M38.85,7.87a1,1,0,0,0-1,1l-.2,74.53a1,1,0,0,0,1,1l101.12,1.09a1,1,0,0,0,1-1l1.79-76.94a1,1,0,0,0-1-1Z"/><path class="cls-4" d="M42,11a1,1,0,0,0-1,1L39.89,80.62a1,1,0,0,0,1,1l96.45,1.82a1,1,0,0,0,1-1l1.44-71.56a1,1,0,0,0-1-1Z"/><g id="content"><g id="list"><path class="cls-5" d="M63.42,27.15a.91.91,0,0,0-.94,1l.25,4.07a1.08,1.08,0,0,0,1.06,1h7.9a1.07,1.07,0,0,0,1-1l.16-3.94a1,1,0,0,0-1-1Z"/><path class="cls-5" d="M63.54,36.44a1,1,0,0,0-1,1l.08,3.45a1,1,0,0,0,1,1l7.66-.39a1,1,0,0,0,.93-1L72,37.54a1.12,1.12,0,0,0-1.08-1Z"/><path class="cls-5" d="M63.79,45a1.09,1.09,0,0,0-1,1l-.15,3.32a.9.9,0,0,0,.95,1L71.2,50a1,1,0,0,0,1-1L72,45.84a1,1,0,0,0-1-1Z"/><path class="cls-6" d="M63.54,53a1,1,0,0,0-.93,1l.23,3.46a.92.92,0,0,0,1.06.86l7.31-1a1.07,1.07,0,0,0,.91-1.13l-.21-2.46a1.07,1.07,0,0,0-1.08-1Z"/><path class="cls-6" d="M64,62.09a1,1,0,0,0-1,1v4.31a.88.88,0,0,0,1,.89L71,67.49a1.05,1.05,0,0,0,.92-1.11l-.23-3.08a1.12,1.12,0,0,0-1.07-1Z"/><path class="cls-3" d="M77.16,27.52a.88.88,0,0,0-.91,1l.31,3.34a1.16,1.16,0,0,0,1.1,1l31.19.46a1,1,0,0,0,1-1l.16-3.45a1,1,0,0,0-1-1Z"/><path class="cls-3" d="M76.42,36.64a.92.92,0,0,0-.9,1l.17,1.73a1.13,1.13,0,0,0,1.1,1l17.44.11a1.13,1.13,0,0,0,1.11-1L95.62,37a.85.85,0,0,0-.89-1Z"/><path class="cls-3" d="M77.53,44.75a1,1,0,0,0-1,1v2.83a1,1,0,0,0,1,1l22.15-.11a.84.84,0,0,0,.85-1l-.32-2.11a1.24,1.24,0,0,0-1.15-1Z"/><path class="cls-3" d="M77.41,53a1.09,1.09,0,0,0-1,1l-.07,2.45a1,1,0,0,0,1,1l9.27-.2a.91.91,0,0,0,.9-1l-.28-2.59a1.1,1.1,0,0,0-1.11-1Z"/><path class="cls-3" d="M91.15,52.54a1,1,0,0,0-1,1v2a1,1,0,0,0,1,1l5.81.09a1,1,0,0,0,1-1v-2a1,1,0,0,0-1-1Z"/><path class="cls-3" d="M77.41,62.16a1.1,1.1,0,0,0-1.06,1l-.13,2.46a.93.93,0,0,0,.94,1L103,66.28a1.12,1.12,0,0,0,1.08-1l.22-2.71a.89.89,0,0,0-.92-1Z"/><path class="cls-7" d="M50.78,27.55a1.16,1.16,0,0,0-1,1.08l-.16,3.7a.93.93,0,0,0,1,1l7.66-.2a1,1,0,0,0,1-1V27.89a.91.91,0,0,0-1-.92Z"/><path class="cls-7" d="M50.78,37.24a1,1,0,0,0-1,1L50,42a.92.92,0,0,0,1,.89l7.42-.78a1.2,1.2,0,0,0,1-1.1l.15-3.21a.89.89,0,0,0-1-.95Z"/><path class="cls-7" d="M58.2,45.35a1,1,0,0,1,.89,1.11l-.29,2.71a1.1,1.1,0,0,1-1.1,1L51.77,50a1.17,1.17,0,0,1-1.09-1l-.31-3.45a.79.79,0,0,1,.9-.89Z"/><path class="cls-7" d="M57.71,53a1.2,1.2,0,0,1,1,1.14v3.2a1,1,0,0,1-1,1H51.77a1.15,1.15,0,0,1-1.11-1l-.51-4.45A.74.74,0,0,1,51,52Z"/><path class="cls-7" d="M57.47,62.14a1.34,1.34,0,0,1,1.06,1.16l.34,4.2a.85.85,0,0,1-.92.94l-6.43-.38a1,1,0,0,1-1-1.06l.18-4.93a.86.86,0,0,1,1-.84Z"/></g><path class="cls-7" d="M50.35,17.52a1,1,0,0,0-1,1l.05,2.73a1.05,1.05,0,0,0,1,1l44.72.53a1,1,0,0,0,1-1l.13-3.94a1,1,0,0,0-1-1Z"/><g class="cls-8"><path class="cls-9" d="M99.76,17a.82.82,0,0,0-.87.95l.48,3.59a1.17,1.17,0,0,0,1.13,1h10.73a1.05,1.05,0,0,0,1-1l.11-3a1,1,0,0,0-1-1Z"/></g><path class="cls-7" d="M64.53,73.37a1,1,0,0,0-.91,1.08l.19,2.21a1.07,1.07,0,0,0,1.09,1l3.82-.17a1.13,1.13,0,0,0,1.06-1L69.91,74A.85.85,0,0,0,69,73Z"/><path class="cls-7" d="M74.44,73a.86.86,0,0,0-.87,1l.35,2.6a1.27,1.27,0,0,0,1.13,1l3.46.24a1.14,1.14,0,0,0,1.17-.92l.52-3a.82.82,0,0,0-.83-1Z"/><path class="cls-7" d="M85.08,73a1,1,0,0,0-.91,1.11l.2,2.35a1.19,1.19,0,0,0,1.09,1l3.45.15a1,1,0,0,0,1.07-1l.23-3.33a.8.8,0,0,0-.92-.88Z"/><path class="cls-7" d="M96.1,73.08a1,1,0,0,0-.88,1.12l.27,2.47a1.22,1.22,0,0,0,1.11,1l3.33.15a1,1,0,0,0,1.07-1l.23-3.45a.8.8,0,0,0-.92-.88Z"/><path class="cls-7" d="M107.13,73a1,1,0,0,0-.95,1l.14,2.58a1.15,1.15,0,0,0,1.06,1l2.83.15a1.2,1.2,0,0,0,1.19-.93l.61-3.12a.76.76,0,0,0-.81-.94Z"/><path class="cls-7" d="M125.58,17.13a1.26,1.26,0,0,0-1.09,1.09l-.32,3.71a.94.94,0,0,0,.92,1l8.89.2a.94.94,0,0,0,1-1l-.18-4.93a.94.94,0,0,0-1-.91Z"/></g></g><g id="Laua_vari" data-name="Laua vari" class="cls-10"><path class="cls-11" d="M45.05,118.22a11.65,11.65,0,0,1,1.94-.46l21.78-3.07a16.5,16.5,0,0,1,2-.15l23.9-.35c.55,0,1.45,0,2,.1l18.57,2c.55.06,1.43.21,2,.33l7.79,1.78a1.66,1.66,0,0,1,1.16,1.16,1.07,1.07,0,0,1-.79,1.19l-9.6,2.63a13,13,0,0,1-2,.34L86,125.81a18.85,18.85,0,0,1-2,0l-25.31-1.26a14.72,14.72,0,0,1-2-.27l-12.44-2.84a1.71,1.71,0,0,1-1.19-1.2l0-.27a1.16,1.16,0,0,1,.73-1.31Z"/></g><g id="Laud"><path class="cls-12" d="M100.45,125.22c.55,0,1,.33.91.71a1.37,1.37,0,0,1-1.07.92s-5.52,1.26-5.8,1.26l-9.31.17a13.22,13.22,0,0,1-2-.14l-6.29-1a5,5,0,0,1-1.45-.43,1.33,1.33,0,0,1-.51-1c0-.38.4-.69,1-.69Z"/><path class="cls-13" d="M85,122.47a11.92,11.92,0,0,0-2,.15l-6,1a3.17,3.17,0,0,0-1.54.77c-.31.33-.12.69.42.8L82,126.43a12,12,0,0,0,2,.2l9.15.08a12,12,0,0,0,2-.19l5.37-1.09c.54-.11,1-.43,1-.71s-.44-.59-1-.68l-7.22-1.24a16.74,16.74,0,0,0-2-.19Z"/><path class="cls-14" d="M85.58,123.67a1.36,1.36,0,0,0,1,1.25l.66.16a4.07,4.07,0,0,0,1.93-.06l.69-.23a1.44,1.44,0,0,0,1-1.3v-30a.94.94,0,0,0-1-1l-2.93.17a1.08,1.08,0,0,0-1,1Z"/><path class="cls-15" d="M86.85,92.67a1.07,1.07,0,0,0-1,1v5.9a1.26,1.26,0,0,0,1,1.19l2.78.55a.82.82,0,0,0,1-.81l.14-7.1a.92.92,0,0,0-1-1Z"/><path class="cls-12" d="M119.62,88.49a1,1,0,0,1,1,1V90a1.34,1.34,0,0,1-1,1.23l-6.52,1.52a14.67,14.67,0,0,1-2,.31L97.05,94.1c-.55,0-1.45.07-2,.06L69.94,93.7c-.55,0-1.45,0-2-.09l-9.18-.72a7.4,7.4,0,0,1-1.91-.46L53.68,91.1a1.48,1.48,0,0,1-.92-1.19.93.93,0,0,1,1-.82Z"/><path class="cls-13" d="M53,88.67c-.15.24.16.52.7.62l9.45,1.85a13.29,13.29,0,0,0,2,.2l36.45.35a16.59,16.59,0,0,0,2-.11l15.27-1.86a2.15,2.15,0,0,0,1.36-.68c.2-.31-.07-.67-.6-.82,0,0-6.43-1.72-6.84-1.72s-30-1.32-30-1.32a19.08,19.08,0,0,0-2,0l-22,2c-.54,0-1.43.17-2,.28L54.31,88A2.35,2.35,0,0,0,53,88.67Z"/><path class="cls-16" d="M85.93,104.1c0-.55.36-.78.79-.51a1.93,1.93,0,0,1,.75,1.5l-.33,18.74c0,.55-.37,1-.79.92a1,1,0,0,1-.76-1.08Z"/></g><g id="laptop"><path class="cls-15" d="M112.75,88.37c.55,0,1-.38,1-.75s-.41-.8-.94-.93L110,85.94a2.12,2.12,0,0,1-1.32-1.18l-3.14-8.53a1.5,1.5,0,0,0-1.35-.9l-12.65.45a.78.78,0,0,0-.75,1l2.39,9.67a2.1,2.1,0,0,0,1.19,1.3L97.94,89a5.79,5.79,0,0,0,1.94.26Z"/><path class="cls-14" d="M95.86,86.62c-.55,0-.56.18,0,.31l2.21.56a7.67,7.67,0,0,0,2,.2l12.8-.7c.55,0,.56-.17,0-.3L110,85.94a7.69,7.69,0,0,0-2-.17Z"/><path class="cls-17" d="M89.87,77.48c-.18-.52-.12-1.11.15-1.3s.64.06.85.57l3.62,9a2.19,2.19,0,0,0,1.34,1.17l2.21.56A1.15,1.15,0,0,1,99,88.54c0,.45-.49.66-1,.48l-3.62-1.26A2.34,2.34,0,0,1,93,86.49Z"/><path class="cls-4" d="M93.23,76.9a.71.71,0,0,0-.65,1l2.67,7.2A1.43,1.43,0,0,0,96.6,86l10-.64a.71.71,0,0,0,.65-1l-2.62-7.19a1.41,1.41,0,0,0-1.34-.87Z"/><path class="cls-18" d="M94.42,78.81c-.55,0-.87.43-.72.86A1.29,1.29,0,0,0,95,80.4l8.91-.57c.55,0,.87-.44.7-.9a1.33,1.33,0,0,0-1.3-.76Z"/><path class="cls-9" d="M94,77.35c-.55,0-.91.28-.79.56s.65.5,1.2.48l1,0c.55,0,.9-.27.79-.57a1.3,1.3,0,0,0-1.21-.48Z"/><path class="cls-3" d="M95.15,80.88a.71.71,0,0,0-.65,1l1.06,2.78a1.39,1.39,0,0,0,1.35.84l1.66-.15a.7.7,0,0,0,.62-1l-1.11-2.73a1.45,1.45,0,0,0-1.37-.85Z"/><path class="cls-19" d="M99.42,80.64a.7.7,0,0,0-.64,1l.27.68a1.44,1.44,0,0,0,1.36.85l1.75-.15a.6.6,0,0,0,.52-1l-.4-.72a1.71,1.71,0,0,0-1.48-.8Z"/><path class="cls-19" d="M103.32,80.37a.64.64,0,0,0-.55,1L104.1,84a1.79,1.79,0,0,0,1.45.89h.29a.62.62,0,0,0,.62-.92l-1.19-2.86a1.44,1.44,0,0,0-1.37-.83Z"/><path class="cls-3" d="M100.59,83.55c-.54,0-1,.2-.92.37s.53.25,1.08.21l1.81-.15c.55,0,.93-.2.85-.36s-.61-.24-1.16-.2Z"/><path class="cls-3" d="M100.84,84.4c-.55,0-1,.21-.9.37s.54.25,1.09.23l1.81-.09c.55,0,.92-.2.83-.39s-.62-.3-1.17-.26Z"/></g><g id="user"><path class="cls-20" d="M112.13,80.09a1,1,0,0,0-1.35.3l-4,6.56a2,2,0,0,1-1.51.89l-2.53.08a1.14,1.14,0,0,1-1.14-1h0c-.07-.55-.35-1-.61-.9a2.13,2.13,0,0,0-.93.52,1.85,1.85,0,0,1-1.43.21l-3-.65a3.33,3.33,0,0,0-1.87.24L93,86.8c-.49.25-.51.68,0,1l1,.62a9.77,9.77,0,0,0,1.81.8l2.11.62c.53.16,1.41.37,1.94.47l5.35,1c.54.11,1.43.24,2,.29l.62,0a2.29,2.29,0,0,0,1.67-.64L116,83.89a.84.84,0,0,0-.15-1.29Z"/><path class="cls-20" d="M122.47,70.6a1.06,1.06,0,0,1-1.15-.88l0-.19c-.09-.55-.37-1-.63-.9a4.13,4.13,0,0,1-1.3-.14,2.21,2.21,0,0,1-1.23-1.13l-.65-1.48-.54-1.2-.53-1.2-.16-.37a7.81,7.81,0,0,1-.51-1.91l-.36-3.34a1.9,1.9,0,0,1,.72-1.57l5.25-3.65a.72.72,0,0,1,1.15.38L125.28,61a18.44,18.44,0,0,0,.78,1.84l3.07,6.13a.65.65,0,0,1-.55,1Z"/><path class="cls-21" d="M123.29,61.25c-.49-.25-.88,0-.88.55l0,2.62a7.1,7.1,0,0,1-.26,1.87,9.27,9.27,0,0,1-.67,1.56c-.21.38,0,.53.54.32l.76-.29a1,1,0,0,1,1.3.55l.45,1.1a1.44,1.44,0,0,0,1.38.83l2.78-.29a.75.75,0,0,0,.66-1l-1.66-4.73a2.87,2.87,0,0,0-1.22-1.4Z"/><path class="cls-22" d="M125.2,101.21a1.71,1.71,0,0,1-1.29-1.08l-4.86-15.42a1.12,1.12,0,0,0-1.28-.75l-.29.06a2.62,2.62,0,0,1-1.79-.38l-5-3.68a.94.94,0,0,1-.18-1.37l5.61-6.87a3.71,3.71,0,0,1,1.6-1l6.53-1.77a6.44,6.44,0,0,1,2-.14l5.76.71a2.4,2.4,0,0,1,1.54,1l4.11,6.31a6.28,6.28,0,0,1,.74,1.82l4.76,23.89a.67.67,0,0,1-.79.85Z"/><path class="cls-11" d="M122.35,126.43a.63.63,0,0,0-.78.8l.57,2.69a1.42,1.42,0,0,0,1.21,1.05l3.33.23a.94.94,0,0,0,1-.93l0-1.87a1.22,1.22,0,0,0-1-1.18Z"/><path class="cls-11" d="M103.41,128c.1-.14.6-.08,1.11.12l9,3.62c.51.21.89.58.85.82s-.49.27-1,.06l-9.24-4C103.63,128.41,103.3,128.12,103.41,128Z"/><path class="cls-23" d="M113.62,127.33a9,9,0,0,0-1.88-.63l-5.49-1a1.78,1.78,0,0,0-1.59.62l-.47.63a.73.73,0,0,0,.33,1.17l9,3.62a1,1,0,0,0,1.33-.54l.77-1.73a1,1,0,0,0-.48-1.36Z"/><path class="cls-23" d="M122.29,125.88a1,1,0,0,0-.57,1.31l.65,1.72a1.87,1.87,0,0,0,1.35,1.07l2.6.35a1,1,0,0,0,1.14-.85l.16-1.09a4,4,0,0,0-.27-1.9l-.61-1.31a1.08,1.08,0,0,0-1.35-.54Z"/><path class="cls-24" d="M132,69.48a2.4,2.4,0,0,1,1.54,1l4.11,6.31a6.56,6.56,0,0,1,.76,1.81l3.46,15.28a1.69,1.69,0,0,1-.58,1.58l-5.6,4.23a.71.71,0,0,1-1.15-.34l-5.34-13.86a1.76,1.76,0,0,0-1.35-1l-8-.61c-.55,0-.64-.36-.21-.7l4.63-3.68a2.51,2.51,0,0,0,.81-1.63l.19-8.17a.9.9,0,0,1,1-.88Z"/><path class="cls-25" d="M112.59,125.89a2.07,2.07,0,0,0,1,1.44l1.53.77a.69.69,0,0,0,1-.54l2-12.38a2.39,2.39,0,0,1,1-1.47l2.06-1.16a.59.59,0,0,1,1,.51l1.14,13.42a1,1,0,0,0,1.08.91l2.27-.19a1.42,1.42,0,0,0,1.21-1.06L130.88,113a2.24,2.24,0,0,1,1.13-1.39l3.27-1.46a1.65,1.65,0,0,0,.89-1.41l-.15-8.45a.91.91,0,0,0-1-.9l-15.84,1.57a4.37,4.37,0,0,0-1.81.67l-6.55,4.65a1.81,1.81,0,0,0-.68,1.57Z"/><path class="cls-26" d="M122.61,100.62c-.55,0-.74.46-.43.91l.84,1.21a2.57,2.57,0,0,0,1.56.94l5.88.68a1,1,0,0,0,1.14-.88l.42-2.76a.75.75,0,0,0-.85-.9Z"/><path class="cls-27" d="M128,126.15a1.46,1.46,0,0,1-1.23,1l-.46,0a.88.88,0,0,1-1-.92l.36-12.12a.94.94,0,0,1,1-.91l3.25.29a.84.84,0,0,1,.77,1.06Z"/><path class="cls-26" d="M110.13,107.83c-.08-.54.24-.73.69-.43l2.16,1.45a2.3,2.3,0,0,1,.88,1.56l.77,16a.71.71,0,0,1-.93.76h0a1.57,1.57,0,0,1-1.1-1.23Z"/><path class="cls-27" d="M124.9,110.82c-.55,0-.6-.26-.12-.52l1.46-.79a10.88,10.88,0,0,1,1.84-.74L131,108a3.15,3.15,0,0,0,1.51-1.1l2.24-3.36c.3-.45.49-.38.42.16l-.91,6.57a1.11,1.11,0,0,1-1.13.94Z"/><path class="cls-28" d="M114.35,58.41c0,.55.29,1,.61,1.08s.6-.06.6-.22.24-.32.54-.34.69.38.86.9l.35,1a2.06,2.06,0,0,0,.86,1.14c.3.11.52-.26.5-.81l0-1.16c0-.55.13-1,.33-1s.54.4.74.91l.48,1.25a3.5,3.5,0,0,0,1.2,1.47l.56.37a3.61,3.61,0,0,0,1.84.5l2.63-.1a2.18,2.18,0,0,0,1.49-.69,2.49,2.49,0,0,0,.36-1.63l-.82-6.17a3,3,0,0,0-.91-1.62s-3.41-2.78-3.66-2.78-5.22,1.27-5.22,1.27a3.27,3.27,0,0,0-1.57,1l-1.19,1.56a3.33,3.33,0,0,0-.59,1.8Z"/><path class="cls-29" d="M111.93,80.31a.66.66,0,0,0-1.15.08l-4,6.56a2.92,2.92,0,0,0-.45,1.44c0,.32.37.26.74-.14l5.33-5.72a1.2,1.2,0,0,0,0-1.51Z"/><path class="cls-21" d="M114,82.35c-.46-.3-.64-.15-.41.35l.08.17a2,2,0,0,1-.13,1.74l-4.2,6.31c-.31.46-.25.5.12.1l6-6.51a.84.84,0,0,0-.15-1.29Z"/><path class="cls-30" d="M110.49,78.59a1,1,0,0,0,.17,1.37l1.66,1.24a1,1,0,0,0,1.42-.19l5-6.41a13.52,13.52,0,0,1,1.37-1.46l4.32-3.82c.41-.37.31-.55-.22-.41l-6.53,1.77a3.71,3.71,0,0,0-1.6,1Z"/><path class="cls-30" d="M119.57,84.33c-.45-.32-.67-.15-.48.36l1.81,5a2.65,2.65,0,0,0,1.26,1.34L127,93.16c.5.22.67,0,.37-.44l-3-4.55A6.32,6.32,0,0,0,123,86.76Z"/><path class="cls-29" d="M92.92,87.77c-.47-.29-.55-.66-.17-.83l1.06-.5a2.36,2.36,0,0,1,1.32.14l2.44.84c.52.17.51.45,0,.62l-1.81.57a2.58,2.58,0,0,1-1.81-.22Z"/><path class="cls-29" d="M97.56,88a7.13,7.13,0,0,1,2-.29l5.81,0c.55,0,1,.28,1.06.6s-.39.59-.94.58l-9.65-.06c-.55,0-.57-.14,0-.3Z"/><path class="cls-13" d="M119.62,51.31c.53-.14.78-.05.55.18s-.76.72-1.18,1.07l-.66.56a5.48,5.48,0,0,0-1.19,1.55l-.26.56a4.73,4.73,0,0,0-.36,1.9l0,.76c0,.55-.27,1-.7,1a2.69,2.69,0,0,0-1.13.26c-.2.14-.38-.2-.39-.75l-.06-2.23a3.33,3.33,0,0,1,.59-1.8l1.19-1.56a3.24,3.24,0,0,1,1.58-1Z"/><path class="cls-12" d="M123.77,63.5c-.55,0-.82-.19-.6-.48a2.31,2.31,0,0,0,.22-1.51l-.65-3.9c-.1-.54.12-.64.48-.22l1.64,1.91c.36.42.46.35.24-.15l-1.78-3.92a11.28,11.28,0,0,0-1-1.72l-1.16-1.63a.63.63,0,0,1,.39-1.05l.33-.08a2.33,2.33,0,0,1,1.76.37l2.85,2.19a2.85,2.85,0,0,1,.93,1.6l.82,6.17a2.49,2.49,0,0,1-.36,1.63,2.18,2.18,0,0,1-1.49.69Z"/><path class="cls-13" d="M119.18,58a10.66,10.66,0,0,0,.51,1.92l.48,1.25a3.5,3.5,0,0,0,1.2,1.47l.56.37c.46.3.58.18.27-.28l-.76-1.09a5.54,5.54,0,0,1-.76-1.81l-.81-4.29a5.34,5.34,0,0,1,.07-2l.4-1.54c.14-.54,0-.57-.19-.07l-1,2.11a3.72,3.72,0,0,0-.27,1.89Z"/><path class="cls-29" d="M115.76,61.2a7.35,7.35,0,0,0,.49,1.91l1.47,3.33c.22.5.28.48.13,0l-1-3.34a8.11,8.11,0,0,1-.26-2l0-1.2c0-.55-.23-1-.53-1s-.5.48-.45,1Z"/><path class="cls-31" d="M106.25,125.69a1.66,1.66,0,0,0-1.47.44c-.26.34,0,.71.5.81,0,0,5.22,1,5.31,1s1.24-.62,1.24-.62c.49-.25.45-.54-.09-.64Z"/></g><g id="tool3"><path class="cls-14" d="M133.58,115.47a1.33,1.33,0,0,0-1,1.23v9.14c0,.55.38.94.84.86a1.17,1.17,0,0,0,.86-1.14l.31-9.33a.74.74,0,0,0-.94-.78Z"/><path class="cls-15" d="M133.58,115.47a1.33,1.33,0,0,0-1,1.23v.78a2.23,2.23,0,0,0,.81,1.6l.15.11c.44.33.83.14.87-.41l.15-2.55a.71.71,0,0,0-.91-.78Z"/><path class="cls-32" d="M124.94,129.91c-.18.51,0,1,.32,1a1.35,1.35,0,0,0,1.12-.74,3.12,3.12,0,0,1,1.2-1.17,5.25,5.25,0,0,1,1.75-.3l2.27.05a1.08,1.08,0,0,1,1,1V130a1.59,1.59,0,0,0,.88,1.33c.46.18.85-.13.87-.68l0-1.06a1.06,1.06,0,0,1,1-1l2.73-.06a3.07,3.07,0,0,1,1.77.63l.23.2a2.67,2.67,0,0,1,.86,1.48c0,.46.32.79.61.74s.51-.54.51-1.09v-.14a2.5,2.5,0,0,0-.76-1.66l-.72-.63a3.4,3.4,0,0,0-1.75-.72l-2.74-.16c-.55,0-1-.37-1-.76s-.49-.73-1-.78l-1.16-.1a1,1,0,0,0-1,.88,1,1,0,0,1-1,1h-2.09a4.16,4.16,0,0,0-1.85.53l-.81.52A3.27,3.27,0,0,0,124.94,129.91Z"/><path class="cls-32" d="M129.23,113.9a1,1,0,0,0-1,1v0a1,1,0,0,0,1,1l8.22.08a1.53,1.53,0,0,0,1.35-.93l.23-.63a.63.63,0,0,0-.65-.91Z"/><path class="cls-12" d="M138.59,88.92a1.22,1.22,0,0,1,1.14-1l5.52-.14a3.66,3.66,0,0,1,1.82.55l.66.46a1.75,1.75,0,0,1,.65,1.57l-3.57,21.55a3.87,3.87,0,0,1-.85,1.72l-.55.58a2.76,2.76,0,0,1-1.69.75l-4.59.09a.92.92,0,0,1-.95-1l.61-11.81c0-.55.11-1.45.19-2Z"/><path class="cls-13" d="M122.36,110.16a2.54,2.54,0,0,0-1.62.84l-.52.66a1.67,1.67,0,0,0-.16,1.67l.38.74a1.83,1.83,0,0,0,1.46.89l13.23.08a1.53,1.53,0,0,0,1.34-.94l.72-2a13,13,0,0,0,.48-1.93L140.53,91a2.29,2.29,0,0,0-.54-1.71l-.57-.6a1.82,1.82,0,0,0-1.65-.45h0a1.63,1.63,0,0,0-1.08,1.27l-2.27,19a1.23,1.23,0,0,1-1.12,1Z"/><path class="cls-11" d="M125.59,131.67a1.72,1.72,0,0,0-1.09.26,1.09,1.09,0,0,0-.44.88,1.58,1.58,0,0,0,.51.93,1.15,1.15,0,0,0,1.13.07,1.22,1.22,0,0,0,.58-1.19A1,1,0,0,0,125.59,131.67Z"/><path class="cls-11" d="M132.55,132a.33.33,0,0,0-.21.26,1.94,1.94,0,0,0,.31,1.39,1.24,1.24,0,0,0,1.13.16,1,1,0,0,0,.7-.86,1.23,1.23,0,0,0-.56-.93,2,2,0,0,0-1.37,0Z"/><path class="cls-11" d="M141.84,132a7.63,7.63,0,0,0-.74.46c-.23.17-.22.6,0,1a1.05,1.05,0,0,0,2-.33c.16-.48,0-1-.33-1.07A1.62,1.62,0,0,0,141.84,132Z"/></g><path class="cls-24" d="M80,128.63a1.11,1.11,0,0,0-1,1.13l.19,4.6a1,1,0,0,0,1,.93l2-.14a1.42,1.42,0,0,0,1.21-1.05l.7-3.34A3.78,3.78,0,0,0,84,129a1.26,1.26,0,0,0-1.32-.7Z"/><path class="cls-24" d="M68.09,128.87a2.45,2.45,0,0,0-1.6.63,1.52,1.52,0,0,0-.19,1.56l1,2.27a2.13,2.13,0,0,0,1.39,1.09l2.12.39a.93.93,0,0,0,1.09-.82l.44-4.05a.89.89,0,0,0-.89-1Z"/><path class="cls-33" d="M63.16,113.5c0,.49,4.32,16.25,4.32,16.25a1.48,1.48,0,0,0,1.26,1l2.58.14a.91.91,0,0,0,1-.95l-.43-13a1.4,1.4,0,0,1,.92-1.31l6.89-2.28a.6.6,0,0,1,.84.68l-1.39,13.06A.81.81,0,0,0,80,128l2.89-.2a1.69,1.69,0,0,0,1.35-1l5.1-13.65a4.69,4.69,0,0,0,.21-1.93l-.5-3.57a3.22,3.22,0,0,0-.89-1.66l-1.38-1.25a3.24,3.24,0,0,0-1.74-.71l-17.85-.81a1.86,1.86,0,0,0-1.52.8l-1.63,2.65a4.66,4.66,0,0,0-.58,1.85Z"/><path class="cls-21" d="M88.61,80.69a1.22,1.22,0,0,1,1,1.18l-.31,9.58a1.26,1.26,0,0,1-1,1.15l-1.87.31a.81.81,0,0,1-1-.84l.26-10.88a.84.84,0,0,1,1-.83Z"/><path class="cls-20" d="M64,80.21a1,1,0,0,0-1.18.77l-2.2,10.61a1.75,1.75,0,0,0,.6,1.59l1.07.82a1.13,1.13,0,0,0,1.48-.11l5.87-6.17a1.76,1.76,0,0,0,.34-1.66l-1.47-4a2.06,2.06,0,0,0-1.33-1.15Z"/><path class="cls-30" d="M79.09,129.75a1,1,0,0,1,.88-1.12l2.75-.38A1.26,1.26,0,0,1,84,129a.84.84,0,0,1-.64,1.1l-3.18.86a.83.83,0,0,1-1.08-.73Z"/><path class="cls-21" d="M89.09,91.46c.07.54.29.56.49.05l.84-2.28a4.27,4.27,0,0,0,.26-1.71,1.05,1.05,0,0,0-1.09-.77h-.17a.84.84,0,0,0-.86,1Z"/><path class="cls-20" d="M72.63,70.72a1.17,1.17,0,0,0-1,1.12l0,2.21a1.11,1.11,0,0,0,1,1.09l7,.62a1,1,0,0,0,1.06-.91l.25-4.13a.81.81,0,0,0-.93-.88Z"/><path class="cls-34" d="M65,74.81a2.22,2.22,0,0,0-1.29,1.24L62.5,79.37a2.55,2.55,0,0,0,.15,1.82l.46.84a6.31,6.31,0,0,1,.61,1.87l2.9,22.29a1,1,0,0,0,1.13.9L84,105.66A1.22,1.22,0,0,0,85,104.58l1.58-21.66a1.14,1.14,0,0,1,1.08-1l1.59-.06a.71.71,0,0,0,.69-1l-1.41-4.29A3.8,3.8,0,0,0,87.46,75L86,73.86a4.42,4.42,0,0,0-1.78-.73l-1-.13a5.85,5.85,0,0,0-2,.17l-4.65,1.4a4,4,0,0,1-1.92,0l-3.77-1.07a4,4,0,0,0-1.92,0Z"/><path class="cls-35" d="M74.7,74.59a.57.57,0,0,1,.29,1l-1.81,2a4.81,4.81,0,0,0-.92,1.71l-1.17,4.52c-.14.53-.39,1.39-.55,1.92,0,0-2.06,6.75-2.34,6.75S66,93,66,93a.87.87,0,0,1-1.1-.75L63.73,83.9A6.63,6.63,0,0,0,63.11,82l-.46-.84a2.55,2.55,0,0,1-.15-1.82l1.19-3.32A2.22,2.22,0,0,1,65,74.81l4-1.26a4,4,0,0,1,1.92,0Z"/><path class="cls-36" d="M70.8,71.05a1.8,1.8,0,0,0,1.27,1.14l2.86.51a4.5,4.5,0,0,0,1.93-.15L81,71.1a1.69,1.69,0,0,0,1-1.32l.79-7.92a2.5,2.5,0,0,0-.58-1.72l-2.84-3a2.22,2.22,0,0,0-1.68-.6l-6.19.85a1.41,1.41,0,0,0-1.14,1.12l-1,6.57a5.58,5.58,0,0,0,.14,2Z"/><path class="cls-29" d="M62.24,94c.44.34.82.16.84-.39l.46-9.7a3.7,3.7,0,0,0-.41-1.77c-.26-.43-.56-.34-.67.2l-1.89,9.25a1.75,1.75,0,0,0,.6,1.59Z"/><path class="cls-37" d="M71.28,71c-.11.54-.32.55-.48,0l-1.17-4a5.58,5.58,0,0,1-.14-2l1-6.57a1.41,1.41,0,0,1,1.14-1.12l6.19-.85c.55-.07.6.08.11.34l-3.59,1.93a1.82,1.82,0,0,0-.87,1.48l.07,5.24c0,.55-.08.56-.19,0l-1.09-5.37c-.11-.54-.19-.53-.19,0l.07,5.8a11,11,0,0,1-.18,2Z"/><path class="cls-38" d="M72.07,72.19a1,1,0,0,1-.89-1,1,1,0,0,1,1.09-.75l3,.19a3.74,3.74,0,0,0,1.85-.47l1.71-1.1a1.67,1.67,0,0,0,.71-1.53l-.59-4.39c-.08-.55.08-.6.34-.12l.47.85c.26.48.4.43.31-.11l-1.09-6.39c-.09-.54.14-.65.52-.25l2.84,3a2.5,2.5,0,0,1,.58,1.72l-.79,7.92a1.69,1.69,0,0,1-1,1.32l-4.18,1.45a4.5,4.5,0,0,1-1.93.15Z"/><path class="cls-39" d="M87.11,81.91c-.23,0-.46.46-.5,1l-.68,8.81c0,.55.12,1,.36,1.11a2.3,2.3,0,0,0,1,0c.31-.09.54-.61.53-1.16l-.27-8.73C87.54,82.35,87.34,81.91,87.11,81.91Z"/><path class="cls-32" d="M86,73.86a.65.65,0,0,0-1.09.35l-1.14,3.66a8.52,8.52,0,0,0-.3,1.95l0,7.91a2.59,2.59,0,0,1-.74,1.68l-3.21,3c-.4.38-.28.65.27.61l5-.4a1.24,1.24,0,0,0,1.09-1.08l.75-8.59a1.16,1.16,0,0,1,1.09-1l1.59-.06a.71.71,0,0,0,.69-1l-1.41-4.29A3.8,3.8,0,0,0,87.46,75Z"/><g id="tool3-2" data-name="tool3"><path class="cls-14" d="M76.24,119.19a1.31,1.31,0,0,1,1,1.22v9.15c0,.55-.37.93-.83.86a1.2,1.2,0,0,1-.87-1.14L75.2,120a.74.74,0,0,1,1-.78Z"/><path class="cls-15" d="M76.24,119.19a1.31,1.31,0,0,1,1,1.22v.79a2.24,2.24,0,0,1-.8,1.59l-.16.11c-.44.33-.83.15-.86-.4L75.23,120a.72.72,0,0,1,.92-.78Z"/><path class="cls-32" d="M84.88,133.62c.17.51,0,1-.33,1a1.3,1.3,0,0,1-1.11-.74,3.11,3.11,0,0,0-1.21-1.16,4.74,4.74,0,0,0-1.74-.3l-2.28.05a1.08,1.08,0,0,0-1,1v.23a1.57,1.57,0,0,1-.88,1.32c-.45.18-.84-.12-.86-.67l0-1.07a1.07,1.07,0,0,0-1-1l-2.74-.05a3.16,3.16,0,0,0-1.77.62l-.23.2a2.67,2.67,0,0,0-.86,1.48c-.05.46-.32.79-.6.74s-.51-.54-.51-1.09v-.14a2.51,2.51,0,0,1,.75-1.65l.72-.64a3.45,3.45,0,0,1,1.75-.71l2.74-.17c.55,0,1-.37,1-.75s.49-.74,1-.79l1.17-.1a.94.94,0,0,1,1,.89,1,1,0,0,0,1,1H81a4,4,0,0,1,1.85.54l.81.51A3.3,3.3,0,0,1,84.88,133.62Z"/><path class="cls-32" d="M80.58,117.61a1.05,1.05,0,0,1,1,1v0a1,1,0,0,1-1,1l-8.22.07a1.54,1.54,0,0,1-1.35-.92l-.23-.64a.62.62,0,0,1,.65-.9Z"/><path class="cls-28" d="M86.28,92.35a2.86,2.86,0,0,0-1.71-.72l-17.41-.17a3.68,3.68,0,0,0-1.82.57l-.65.46a2,2,0,0,0-.76,1.57l1.19,21.54a3.17,3.17,0,0,0,.74,1.72l.55.59a2.63,2.63,0,0,0,1.68.73l15.74.11a2.12,2.12,0,0,0,1.57-.81l.8-1.17a4,4,0,0,0,.6-1.82l.66-20.39a2.7,2.7,0,0,0-.68-1.71Z"/><path class="cls-11" d="M84.23,135.39a1.73,1.73,0,0,1,1.09.25,1.12,1.12,0,0,1,.44.88,1.63,1.63,0,0,1-.51.93,1.14,1.14,0,0,1-1.14.07,1.23,1.23,0,0,1-.58-1.18A1,1,0,0,1,84.23,135.39Z"/><path class="cls-11" d="M77.26,135.67a.3.3,0,0,1,.21.26,1.91,1.91,0,0,1-.3,1.38,1.29,1.29,0,0,1-1.14.17,1,1,0,0,1-.7-.86,1.25,1.25,0,0,1,.56-.93,1.93,1.93,0,0,1,1.37,0Z"/><path class="cls-11" d="M68,135.73a6.31,6.31,0,0,1,.75.47c.23.17.21.59,0,1a1.34,1.34,0,0,1-1.07.6c-.34,0-.76-.44-.92-.92s0-1,.32-1.07A1.73,1.73,0,0,1,68,135.73Z"/><path class="cls-12" d="M85.55,92.64c0-.55.34-.68.73-.29l.5.5a2.7,2.7,0,0,1,.68,1.71L86.8,115a4,4,0,0,1-.6,1.82l-.8,1.17a2.12,2.12,0,0,1-1.57.81l-15.74-.11a2.63,2.63,0,0,1-1.68-.73l-.55-.59c-.38-.4-.24-.72.31-.72l17,.17a1.33,1.33,0,0,0,1.24-1l.57-2.27a10.85,10.85,0,0,0,.26-2Z"/><path class="cls-13" d="M65.34,92c.45-.32.84-.13.86.42l.82,19a4.79,4.79,0,0,1-.39,1.9l-1,2.15c-.24.5-.45.46-.49-.09L63.93,94.06a2,2,0,0,1,.76-1.57Z"/></g><g id="support"><path class="cls-12" d="M36.64,115.7a2.54,2.54,0,0,1,.08-1.42l.08-.26a1.26,1.26,0,0,1,1.29-.84l1.75.2c.55.07,1.44.22,2,.35l5.74,1.39a1,1,0,0,1,.79,1.06,1.09,1.09,0,0,1-1.17.75l-9.31-.68A1.61,1.61,0,0,1,36.64,115.7Z"/><path class="cls-32" d="M37,112.07a1.34,1.34,0,0,0,1.12,1.11l1.75.2a1.12,1.12,0,0,0,1.21-.86l5-23.06a7.23,7.23,0,0,0,.1-2l-1.87-16a1.73,1.73,0,0,0-1.07-1.31l-6.9-2.3a.92.92,0,0,0-1.2.65L33,76.61a6.49,6.49,0,0,0-.14,2Z"/><path class="cls-34" d="M33,112.54a1.26,1.26,0,0,0,1.08,1.1l3,.3a1,1,0,0,0,1.09-.9l3-31a14.38,14.38,0,0,1,.36-2l2.38-8.66a8.38,8.38,0,0,0,.28-1.68c0-.39-.44-.7-1-.69l-12.93.2a.91.91,0,0,0-.91,1Z"/><path class="cls-40" d="M29.38,70.29a.75.75,0,0,1,.9-.84l.81.13a1.28,1.28,0,0,1,1,1.16l.67,18.48a6,6,0,0,0,.45,1.91l1.9,4.24c.23.5.14.55-.18.11l-1.29-1.74c-.33-.44-.56-.35-.52.2l1.34,18.56c0,.55-.26,1-.67,1s-.77-.43-.82-1Z"/><path class="cls-20" d="M34.88,42.61a2.35,2.35,0,0,1-.7-1.66l.5-11.49a1.31,1.31,0,0,1,1-1.18l4.49-.82a1.29,1.29,0,0,1,1.36.75l1,2.55a10.05,10.05,0,0,0,1,1.73l.11.15a2.32,2.32,0,0,1,.31,1.76l-.81,2.81a3.91,3.91,0,0,1-1,1.62l-.47.41a3.87,3.87,0,0,0-1,1.62l-1.24,4.53a.57.57,0,0,1-1,.3Z"/><path class="cls-21" d="M42.58,30.75A.94.94,0,0,1,42,32l-.53.17a3.48,3.48,0,0,0-1.54,1.11l-2.11,2.9c-.32.45-.56.36-.54-.19l.15-3.21a3,3,0,0,1,.76-1.7l2-2c.39-.39.93-.6,1.2-.46a2.4,2.4,0,0,1,.85,1.18Z"/><path class="cls-21" d="M42.1,38.83c.42-.36.32-.54-.21-.4l-2.67.72a1.72,1.72,0,0,0-1.13,1.25l-.06.35a1,1,0,0,0,.81,1.19l.43.09a1.07,1.07,0,0,0,1.24-.77l.11-.4a3.87,3.87,0,0,1,1-1.62Z"/><path class="cls-41" d="M37.33,46.41a2.66,2.66,0,0,0,.21,1.82l5.71,9.88a3.27,3.27,0,0,0,1.45,1.2l1.17.42a1.82,1.82,0,0,0,1.66-.35l8.72-8.27a1.05,1.05,0,0,0,.07-1.44l-.69-.78a1.2,1.2,0,0,0-1.5-.21L48,52.57a.89.89,0,0,1-1.3-.35l-5-9.51a.72.72,0,0,0-1.19-.21l-2.13,2a4.53,4.53,0,0,0-1,1.64Z"/><path class="cls-42" d="M29.31,68.3a1.16,1.16,0,0,0,1,1.13l6,.8a7.73,7.73,0,0,0,2,0l4.93-.93a1.31,1.31,0,0,0,1-1.19l.46-16.82a5.54,5.54,0,0,0-.35-1.93l-2.69-6.57a2,2,0,0,0-1.37-1.06l-5.87-.81a1.8,1.8,0,0,0-1.57.68l-2.55,3.6a3.78,3.78,0,0,0-.6,1.81Z"/><path class="cls-2" d="M29.31,68.3a1.14,1.14,0,0,0,1,1.12l.76.1a.89.89,0,0,0,1-.88l.31-14.25a1.22,1.22,0,0,0-1-1.18l-.87-.15a.82.82,0,0,0-1,.82Z"/><path class="cls-41" d="M32.83,56.79a3.91,3.91,0,0,0-1.33,1.38l-.42.85a1.19,1.19,0,0,0,.38,1.46l2.64,1.8a18.36,18.36,0,0,0,1.71,1L39.11,65a2.71,2.71,0,0,1,1.18,1.42l.26.84a2,2,0,0,0,1.26,1.2l1.44.37a.78.78,0,0,0,1-.76l.46-16.82c0-.55-.37-.79-.85-.52Z"/><path class="cls-2" d="M28.57,46.72a4.88,4.88,0,0,0-.1,1.94l2,10.27a1.92,1.92,0,0,0,1.13,1.32l1.16.42a2.33,2.33,0,0,0,1.79-.2l6.13-3.92A1.07,1.07,0,0,0,41,55.14l-.6-1.09a1.85,1.85,0,0,0-1.49-.86l-2.21,0a1.24,1.24,0,0,1-1.18-1L33.62,41.71c-.1-.54-.49-.65-.87-.25l-3.12,3.31a5.08,5.08,0,0,0-1,1.68Z"/><path class="cls-39" d="M41.75,29.31a1.31,1.31,0,0,0,1-1.22v-.58a1.17,1.17,0,0,0-1-1.13L37,25.78a2.48,2.48,0,0,0-1.74.54l-2.72,2.44A2.06,2.06,0,0,0,32,30.42l.7,4.51a4,4,0,0,0,.81,1.73l.22.24a1.88,1.88,0,0,0,1.64.52l.9-.22a3,3,0,0,0,1.55-1.05l0,0a2.93,2.93,0,0,0,.43-1.8l0-.11a1.29,1.29,0,0,1,.63-1.33,2.29,2.29,0,0,0,1-1.31l.3-1a1.87,1.87,0,0,1,1.25-1.18Z"/><path class="cls-20" d="M56.05,46.52a2.06,2.06,0,0,1-.26-1.74l.59-1.69a1.39,1.39,0,0,1,1.33-.87l.95.07a2.6,2.6,0,0,1,1.62.85l1.07,1.37a1.32,1.32,0,0,1,0,1.57L59,48.93a.74.74,0,0,1-1.23,0Z"/><path class="cls-15" d="M63,29.05c-.15-.08-.41.28-.6.8L57.68,43.31c-.18.51-.15,1.08.09,1.25s.56-.11.73-.63L63,30.15C63.14,29.63,63.16,29.13,63,29.05Z"/><path class="cls-4" d="M42.18,45.63a1.2,1.2,0,0,1,1.29.78L47,57.19a1.11,1.11,0,0,1-.61,1.34l-6.61,2.72a1,1,0,0,1-1.33-.53l-.51-1.19a1.23,1.23,0,0,1,.44-1.46l2.34-1.51A1.09,1.09,0,0,0,41,55.14l-.6-1.09a1.85,1.85,0,0,0-1.49-.86l-2.21,0a1.64,1.64,0,0,1-1.4-.91l-1.79-4.14a.75.75,0,0,1,.58-1.09Z"/><g id="paper_content" data-name="paper content"><path class="cls-41" d="M36.1,48.09c-.53.15-.83.58-.68,1a1,1,0,0,0,1.24.42l2.13-.6c.53-.15.82-.58.64-1a1.11,1.11,0,0,0-1.29-.41Z"/><path class="cls-7" d="M36.52,52.06c-.05-.15.35-.39.88-.55L42.63,50c.53-.15,1-.14,1,0s-.36.43-.89.58l-5.22,1.47C37,52.2,36.56,52.2,36.52,52.06Z"/><path class="cls-7" d="M36.13,51c-.07-.14.31-.37.84-.53l5.29-1.54c.53-.16,1-.18,1,0s-.39.36-.91.52l-5.15,1.56C36.69,51.08,36.2,51.1,36.13,51Z"/><path class="cls-7" d="M37.67,52.52c-.52.16-.91.39-.86.5s.35.19.66.19A6.29,6.29,0,0,0,39,52.85l4.07-1.49c.52-.18.92-.44.9-.55s-.48-.09-1,.07Z"/></g><path class="cls-20" d="M40.75,52.61a1.12,1.12,0,0,0-.33,1.44l.6,1.09a1.3,1.3,0,0,0,1.44.58l3.92-1.22a1.09,1.09,0,0,0,.73-1.27l-.8-3.33a.64.64,0,0,0-1.05-.41Z"/><path class="cls-13" d="M32.9,114.52a1.09,1.09,0,0,1,1.17-.88l2.74.27a13,13,0,0,1,1.95.39L45,116.24a.84.84,0,0,1,.57,1.16,1.49,1.49,0,0,1-1.4.78l-10.77-.93a.9.9,0,0,1-.82-1.07Z"/><path class="cls-20" d="M42.22,51.88c-.46.3-.56.19-.2-.23l1-1.27c.36-.43.77-.55.92-.29s-.1.73-.57,1Z"/><path class="cls-19" d="M37.67,59.08c-.1-.26.2-.71.66-1l2.34-1.51a9.17,9.17,0,0,1,1.79-.85l2.66-.84c.53-.16,1-.09,1.13.17s-.26.62-.78.79l-2.67.87a9.53,9.53,0,0,0-1.8.85L38.7,59C38.24,59.3,37.77,59.33,37.67,59.08Z"/><path class="cls-43" d="M28.47,48.66a4.88,4.88,0,0,1,.1-1.94l.08-.27a5.08,5.08,0,0,1,1-1.68l3.12-3.31c.38-.4.5-.32.27.18l-2.26,4.88a3.36,3.36,0,0,0-.18,1.88L33.45,60c.13.53-.19.82-.71.63l-1.16-.42a1.92,1.92,0,0,1-1.13-1.32Z"/><path class="cls-44" d="M34.63,60.67c-.52.19-.56.1-.1-.2l2.11-1.32c.47-.29.93-.33,1-.07s-.24.61-.76.79Z"/><path class="cls-44" d="M39.72,61.25c-.5.21-.47.32.07.23l3.63-.55a1.15,1.15,0,0,0,1-.92c0-.42-.39-.59-.9-.38Z"/><path class="cls-21" d="M33.7,36.9c.37.41.61.3.54-.24l-.31-2.54a3.39,3.39,0,0,1,.39-1.85l1.45-2.43A3.75,3.75,0,0,0,36.21,28l-.11-1.33c0-.55-.41-.7-.82-.33l-2.72,2.44A2.06,2.06,0,0,0,32,30.42l.7,4.51a4,4,0,0,0,.81,1.73Z"/><path class="cls-45" d="M38,37.61c-.43-.35-.6-.22-.38.28l.25.6a1.18,1.18,0,0,0,1.36.66l2.67-.72c.53-.14.52-.23,0-.2l-1.91.1a2.93,2.93,0,0,1-1.78-.57Z"/><path class="cls-45" d="M34.37,37.65c-.07,0-.16,2.23-.16,2.23A1.1,1.1,0,0,0,35.15,41a.88.88,0,0,0,1-.87l0-1.92a.74.74,0,0,0-.95-.77Z"/><path class="cls-29" d="M40.75,52.61c-.45.31-.37.5.17.42l.34-.05a5.82,5.82,0,0,0,1.84-.67l1.54-1a3.06,3.06,0,0,0,1.15-1.48c.16-.53-.08-.7-.53-.39Z"/><path class="cls-29" d="M55.7,46c-.14-.15-.1-.7.09-1.22l.59-1.69c.19-.52.46-.51.62,0l.06.18a2.36,2.36,0,0,1-.28,1.78l-.27.39C56.2,45.91,55.83,46.16,55.7,46Z"/><path class="cls-21" d="M61.19,46a1.34,1.34,0,0,0,.1-1.49c-.29-.38-.74-.31-1,.17l-1.93,3.37a1.48,1.48,0,0,0-.23,1.26c.15.22.55,0,.88-.41Z"/></g></svg>